<svg
    xmlns="http://www.w3.org/2000/svg"
    aria-label="GitHub"
    role="img"
    viewBox="0 0 24 24"
    className="w-6 h-6"
    fill="currentColor"
  >
    <path
      fillRule="evenodd"
      d="M12 0C5.37 0 0 5.37 0 12c0 5.3 3.438 9.8 8.205 11.387.6.11.82-.262.82-.58 0-.286-.01-1.04-.015-2.04-3.338.724-4.042-1.61-4.042-1.61-.546-1.383-1.334-1.754-1.334-1.754-1.09-.745.083-.73.083-.73 1.205.086 1.838 1.24 1.838 1.24 1.07 1.83 2.806 1.303 3.49.998.108-.776.417-1.303.76-1.603-2.665-.302-5.466-1.332-5.466-5.93 0-1.31.465-2.38 1.235-3.22-.135-.303-.54-1.523.105-3.176 0 0 1.005-.322 3.3 1.23a11.573 11.573 0 0 1 3-.41c1.017.003 2.04.136 3 .41 2.29-1.552 3.294-1.23 3.294-1.23.645 1.653.24 2.873.12 3.176.765.84 1.23 1.91 1.23 3.22 0 4.61-2.805 5.624-5.475 5.92.43.37.815 1.102.815 2.22 0 1.605-.015 2.896-.015 3.286 0 .32.215.694.825.574C20.565 21.793 24 17.293 24 12c0-6.63-5.37-12-12-12"
    />
  </svg>